<svg width="48" height="48" viewBox="0 0 48 48" fill="none" xmlns="http://www.w3.org/2000/svg">
  <circle cx="24" cy="24" r="24" fill="#00A651"/>
  <path d="M24 12C17.373 12 12 17.373 12 24C12 30.627 17.373 36 24 36C30.627 36 36 30.627 36 24C36 17.373 30.627 12 24 12Z" fill="#FFFFFF"/>
  <circle cx="19" cy="22" r="2" fill="#00A651"/>
  <circle cx="29" cy="22" r="2" fill="#00A651"/>
  <path d="M18 28C18 28 20 31 24 31C28 31 30 28 30 28" stroke="#00A651" stroke-width="2" stroke-linecap="round"/>
  <path d="M24 16C24 16 20 18 18 20" stroke="#00A651" stroke-width="1.5" stroke-linecap="round"/>
  <path d="M24 16C24 16 28 18 30 20" stroke="#00A651" stroke-width="1.5" stroke-linecap="round"/>
</svg>
