<svg width="24" height="24" viewBox="0 0 24 24" fill="none" xmlns="http://www.w3.org/2000/svg">
  <path d="M12 2C10.9 2 10 2.9 10 4C10 4.3 10.1 4.6 10.2 4.9C8.4 5.6 7 7.1 6.5 9H4C2.9 9 2 9.9 2 11V13C2 14.1 2.9 15 4 15H6.5C7.2 17.9 9.8 20 13 20C16.9 20 20 16.9 20 13C20 9.8 17.9 7.2 15 6.5C14.7 6.4 14.4 6.3 14.1 6.2C14.4 5.9 14.6 5.5 14.6 5C14.6 3.9 13.7 3 12.6 3C12.4 3 12.2 3 12 3V2ZM9 11C9.6 11 10 11.4 10 12C10 12.6 9.6 13 9 13C8.4 13 8 12.6 8 12C8 11.4 8.4 11 9 11ZM15 11C15.6 11 16 11.4 16 12C16 12.6 15.6 13 15 13C14.4 13 14 12.6 14 12C14 11.4 14.4 11 15 11ZM12 15C13.7 15 15 16.3 15 18H9C9 16.3 10.3 15 12 15Z" fill="currentColor"/>
</svg>
